<svg width="54" height="54" viewBox="0 0 54 54" fill="none" xmlns="http://www.w3.org/2000/svg">
<rect x="21.2144" y="21.2144" width="11.1857" height="11.1857" fill="white"/>
<path fill-rule="evenodd" clip-rule="evenodd" d="M54 27C54 41.9117 41.9117 54 27 54C25.2585 54 23.5554 53.8351 21.9057 53.5201V43.3091C23.5146 43.8111 25.2257 44.0816 27.0001 44.0816C36.434 44.0816 44.0817 36.4339 44.0817 27C44.0817 17.5661 36.434 9.91837 27.0001 9.91837C17.5661 9.91837 9.91842 17.5661 9.91842 27C9.91842 28.7743 10.1889 30.4854 10.691 32.0944H0.479899C0.164886 30.4446 0 28.7416 0 27C0 12.0883 12.0883 0 27 0C41.9117 0 54 12.0883 54 27Z" fill="white"/>
</svg>
