<svg width="36" height="36" viewBox="0 0 36 36" fill="none" xmlns="http://www.w3.org/2000/svg">
<path d="M18 34.1251C10.38 34.1251 3.73504 28.7102 2.20504 21.2552C2.08504 20.6402 2.47504 20.0551 3.07504 19.9201C3.69004 19.8001 4.27504 20.1901 4.41004 20.7901C5.73004 27.2101 11.445 31.8751 18 31.8751C24.54 31.8751 30.255 27.2401 31.59 20.8501C31.71 20.2351 32.31 19.8451 32.925 19.9801C33.54 20.1001 33.93 20.7001 33.795 21.3151C32.235 28.7251 25.605 34.1251 18 34.1251Z" fill="white"/>
<path d="M32.7149 16.2149C32.1899 16.2149 31.7249 15.8399 31.6199 15.2999C30.3449 8.8199 24.6149 4.10986 17.9999 4.10986C11.4299 4.10986 5.71494 8.77489 4.40994 15.1949C4.28994 15.8099 3.68994 16.1849 3.07494 16.0649C2.45994 15.9449 2.06993 15.3449 2.20493 14.7299C3.73493 7.27489 10.3799 1.85986 17.9999 1.85986C25.6949 1.85986 32.3399 7.33488 33.8249 14.8649C33.9449 15.4799 33.5399 16.0649 32.9399 16.1849C32.8649 16.2149 32.7899 16.2149 32.7149 16.2149Z" fill="white"/>
<path d="M18 21.375C16.14 21.375 14.625 19.86 14.625 18C14.625 16.14 16.14 14.625 18 14.625C19.86 14.625 21.375 16.14 21.375 18C21.375 19.86 19.86 21.375 18 21.375ZM18 16.875C17.385 16.875 16.875 17.385 16.875 18C16.875 18.615 17.385 19.125 18 19.125C18.615 19.125 19.125 18.615 19.125 18C19.125 17.385 18.615 16.875 18 16.875Z" fill="white"/>
</svg>
